<?xml version="1.0" encoding="iso-8859-1"?>
<!-- Uploaded to: SVG Repo, www.svgrepo.com, Generator: SVG Repo Mixer Tools -->
<svg fill="#9B9B9B" height="800px" width="800px" version="1.1" id="Layer_1" xmlns="http://www.w3.org/2000/svg" xmlns:xlink="http://www.w3.org/1999/xlink" 
	 viewBox="0 0 512.099 512.099" xml:space="preserve">
<g transform="translate(-1)">
	<g>
		<g>
			<path d="M505.594,261.784l-0.017-2.534c-0.367-5.163-4.233-14.601-25.515-20.984l-13.713,8.568
				c-27.383,17.476-52.318,50.534-56.755,62.703c-0.93,2.56-2.116,4.983-3.439,7.339c-8.183,1.835-17.212,3.319-27.136,4.275
				c7.134-4.71,11.981-10.402,14.541-17.451c5.82-15.992,32.666-50.799,62.02-70.178c-10.018-1.169-21.999-1.852-36.369-1.852
				h-0.128c-9.071,0.64-23.518,0.188-35.806-2.662c-14.797,27.511-29.594,57.105-32.631,63.198l-5.009,30.063
				c-5.495-0.145-11.238-0.486-17.143-0.964l5.53-33.161c0.128-0.828,0.401-1.63,0.768-2.381
				c1.05-2.116,16.521-33.306,32.521-63.121c-3.251-2.244-5.598-4.958-6.46-8.277c-0.299-1.186-0.879-2.253-1.621-3.183
				L270.219,311.96c-6.05-1.408-12.245-2.97-18.611-4.719l87.305-98.842l-6.682-5.018c-0.137-0.35-0.384-0.811-0.546-1.195
				l-36.386,35.439c-1.673,1.621-3.814,2.423-5.965,2.423c-2.219,0-4.437-0.862-6.11-2.577c-3.285-3.379-3.217-8.781,0.154-12.066
				l36.685-35.738c-0.435-0.179-0.768-0.495-1.237-0.64c-3.26-1.033-7.979-1.399-13.568,1.442l-2.654-1.766l-38.332,37.282
				c-1.655,1.613-3.806,2.415-5.948,2.415c-2.227,0-4.446-0.862-6.118-2.586c-3.285-3.379-3.208-8.781,0.162-12.066l38.46-37.393
				c-2.953-1.357-7.228-2.313-12.826-0.7c-2.628-1.408-5.845-3.533-7.876-5.803l-38.366,37.436
				c-1.655,1.613-3.806,2.423-5.956,2.423c-2.219,0-4.429-0.853-6.11-2.577c-3.294-3.371-3.226-8.772,0.154-12.066l37.53-36.617
				c-2.645-0.393-5.982-0.102-9.754,2.031c-2.441-0.58-7.893-2.876-14.345-12.041c-9.702-13.798-32.717-24.491-47.753-17.613
				c-6.306,2.876-15.821,10.846-11.819,32.282c-4.787,5.103-19.388,16.452-52.813,13.363c-5.154-0.717-19.874-4.352-25.873-12.424
				c-8.951-12.032-34.543-18.159-49.749-11.955c-9.464,3.857-14.285,12.143-12.919,22.144c1.382,10.146,0.239,14.251-0.239,15.445
				c-0.742,0.495-1.408,1.109-1.971,1.818c-1.212,1.553-29.107,37.956-17.818,84.241c-3.806,3.482-8.977,9.617-10.368,18.304
				c-1.143,7.108,0.461,14.225,4.779,21.231c-3.849,6.579-8.482,18.039-3.695,29.969c6.647,16.589,27.699,26.453,64.375,30.157
				c2.304,0.222,4.634-0.486,6.4-2.014c2.022-1.724,10.76-7.834,17.178-6.195c3.499,0.905,6.451,4.471,8.755,10.607
				c1.408,3.738,5.257,5.965,9.131,5.47c2.27-0.316,56.124-7.723,92.74-24.567c11.426-4.198,26.786-6.059,30.208-2.27
				c7.228,7.936,38.135,26.982,64.239,26.974c3.106,0,6.153-0.273,9.071-0.862c10.086-2.039,17.647-7.671,22.135-16.41
				c3.115-0.145,7.433,0.956,9.549,7.134c0.768,2.227,2.415,4.036,4.565,5.009c13.807,6.246,42.624,11.128,56.61-12.681l4.514-1.51
				c6.238,4.002,18.662,10.308,31.309,7.04c6.05-1.57,14.242-6.025,19.934-18.142l7.868-5.239l5.973-0.384
				c0.973-0.06,1.929-0.29,2.825-0.674c1.254-0.538,30.711-13.431,39.953-40.252C515.229,292.334,513.573,277.324,505.594,261.784z
				 M129.104,205.464c33.929,0,68.267,11.725,68.267,34.133c0,22.409-34.338,34.133-68.267,34.133
				c-33.929,0-68.267-11.725-68.267-34.133C60.837,217.189,95.175,205.464,129.104,205.464z M494.262,300.799
				c-5.837,17.067-24.44,27.204-29.363,29.636l-6.656,0.427c-1.493,0.094-2.935,0.58-4.19,1.417l-11.844,7.893
				c-1.425,0.956-2.526,2.304-3.174,3.891c-3.652,9.003-8.038,10.163-9.472,10.547c-7.364,1.937-17.382-4.318-20.326-6.63
				c-2.261-1.818-5.282-2.347-8.03-1.442l-11.844,3.951c-2.202,0.734-4.011,2.33-5.001,4.42
				c-7.578,15.881-25.617,11.554-32.973,8.986c-7.407-15.189-23.287-16.486-32.853-13.338c-2.509,0.828-4.489,2.773-5.376,5.265
				c-2.014,5.734-5.53,8.815-11.401,10.001c-18.944,3.814-51.268-14.242-57.293-20.873c-13.09-14.387-42.889-4.412-49.357-2.014
				c-27.81,12.783-67.209,20.028-82.304,22.468c-5.316-9.668-12.271-13.38-17.562-14.737c-12.194-3.132-23.927,3.524-29.44,7.398
				c-35.618-4.105-44.681-13.662-46.899-19.098c-3.413-8.388,4.659-18.193,4.71-18.253c2.68-3.14,2.739-7.748,0.12-10.948
				c-3.866-4.719-5.521-9.062-4.941-12.911c0.444-2.935,2.082-5.385,3.669-7.134c0.247,0.111,0.452,0.179,0.7,0.29
				c4.506,2.048,8.755,3.831,12.791,5.402c0.384,0.145,0.768,0.299,1.143,0.444c3.925,1.502,7.612,2.79,11.068,3.9
				c0.538,0.171,1.05,0.333,1.57,0.503c3.132,0.973,6.076,1.801,8.806,2.5c0.76,0.196,1.476,0.367,2.21,0.546
				c2.33,0.555,4.523,1.033,6.528,1.417c0.905,0.171,1.715,0.316,2.551,0.452c1.647,0.282,3.209,0.521,4.599,0.691
				c0.862,0.111,1.587,0.188,2.338,0.256c1.024,0.111,1.963,0.188,2.807,0.239c0.751,0.051,1.357,0.085,1.954,0.102
				c0.751,0.026,1.408,0.043,1.929,0.043c0.375-0.009,0.572-0.009,0.828-0.017c0.469-0.008,0.836-0.026,0.964-0.034
				c63.548-7.706,101.086-0.887,115.533,2.85c4.403,1.152,6.741,2.014,6.903,2.082c6.878,2.406,13.568,4.591,20.147,6.656
				c2.014,0.631,3.968,1.195,5.948,1.792c4.54,1.374,9.028,2.679,13.423,3.891c2.21,0.606,4.395,1.195,6.562,1.758
				c4.233,1.109,8.388,2.133,12.493,3.098c1.937,0.452,3.908,0.939,5.82,1.365c5.205,1.152,10.308,2.202,15.292,3.132
				c0.631,0.119,1.306,0.273,1.937,0.384c5.513,1.007,10.863,1.852,16.111,2.594c1.818,0.265,3.576,0.461,5.359,0.691
				c3.464,0.452,6.895,0.862,10.24,1.195c1.954,0.196,3.874,0.375,5.777,0.538c3.166,0.265,6.272,0.478,9.327,0.657
				c1.766,0.102,3.55,0.222,5.282,0.29c3.61,0.154,7.117,0.23,10.573,0.256c0.862,0.009,1.792,0.06,2.654,0.06
				c0.128,0,0.247-0.009,0.384-0.009c4.651-0.009,9.114-0.145,13.483-0.358c1.442-0.068,2.842-0.162,4.258-0.256
				c3.157-0.196,6.229-0.444,9.242-0.742c1.28-0.128,2.577-0.239,3.831-0.384c3.959-0.452,7.817-0.973,11.511-1.57
				c0.802-0.137,1.553-0.29,2.347-0.427c3.004-0.521,5.905-1.084,8.73-1.69c1.169-0.256,2.313-0.512,3.447-0.777
				c2.628-0.614,5.171-1.254,7.646-1.929c0.777-0.213,1.596-0.418,2.355-0.631c3.098-0.887,6.059-1.818,8.9-2.79
				c0.828-0.273,1.596-0.563,2.406-0.853c2.116-0.751,4.164-1.519,6.135-2.295c0.819-0.333,1.647-0.657,2.441-0.99
				c2.321-0.956,4.557-1.937,6.673-2.918c0.205-0.102,0.435-0.196,0.648-0.29c2.295-1.084,4.429-2.176,6.477-3.268
				c0.64-0.341,1.246-0.674,1.86-1.015c1.493-0.819,2.918-1.63,4.275-2.441c0.503-0.299,1.015-0.597,1.502-0.887
				c1.715-1.05,3.328-2.091,4.813-3.089c0.324-0.213,0.589-0.418,0.904-0.623c1.186-0.828,2.304-1.621,3.354-2.389
				c0.41-0.307,0.802-0.597,1.186-0.896c0.964-0.734,1.852-1.425,2.671-2.099c0.222-0.179,0.461-0.367,0.674-0.538
				c0.981-0.811,1.843-1.562,2.62-2.253c0.222-0.205,0.41-0.375,0.623-0.572c0.546-0.503,1.024-0.956,1.451-1.365
				c0.171-0.171,0.333-0.324,0.486-0.478c0.478-0.469,0.896-0.896,1.186-1.203c1.058-0.862,2.142-1.903,3.226-3.055
				c0.41-0.427,0.811-0.922,1.212-1.382c0.691-0.776,1.374-1.544,2.057-2.398c0.478-0.589,0.939-1.203,1.408-1.818
				c0.606-0.794,1.203-1.579,1.792-2.398c0.512-0.708,0.998-1.408,1.485-2.125c0.333-0.469,0.674-0.93,0.99-1.408
				C496.515,289.33,496.165,295.235,494.262,300.799z"/>
			<path d="M129.104,256.665c31.761,0,51.2-11.051,51.2-17.067s-19.439-17.067-51.2-17.067c-31.761,0-51.2,11.051-51.2,17.067
				S97.343,256.665,129.104,256.665z M120.57,231.065h17.067c4.719,0,8.533,3.823,8.533,8.533s-3.814,8.533-8.533,8.533H120.57
				c-4.719,0-8.533-3.823-8.533-8.533S115.851,231.065,120.57,231.065z"/>
		</g>
	</g>
</g>
</svg>